<?xml version="1.0" standalone="no"?>
<!DOCTYPE svg PUBLIC "-//W3C//DTD SVG 20010904//EN"
 "http://www.w3.org/TR/2001/REC-SVG-20010904/DTD/svg10.dtd">
<svg version="1.0" xmlns="http://www.w3.org/2000/svg"
 width="30.000000pt" height="30.000000pt" viewBox="0 0 30.000000 30.000000"
 preserveAspectRatio="xMidYMid meet">

<g transform="translate(0.000000,30.000000) scale(0.100000,-0.100000)"
fill="#000000" stroke="none">
<path d="M215 270 c-4 -6 5 -22 20 -36 20 -18 30 -22 35 -14 9 14 1 50 -10 50
-5 0 -15 3 -23 6 -8 3 -18 0 -22 -6z"/>
<path d="M164 259 c-4 -7 1 -16 10 -21 26 -14 19 -31 -34 -83 -49 -48 -50 -48
-70 -30 -14 12 -24 15 -31 8 -6 -6 5 -26 36 -58 34 -38 48 -46 57 -37 9 9 7
16 -7 32 -18 20 -18 21 30 70 53 54 68 60 84 33 9 -16 12 -16 20 -3 8 11 0 25
-31 57 -45 46 -53 50 -64 32z"/>
<path d="M28 85 c-12 -13 6 -54 25 -59 35 -9 44 11 17 39 -24 25 -32 29 -42
20z"/>
</g>
</svg>
